<svg width="311" height="118" viewBox="0 0 311 118" fill="none" xmlns="http://www.w3.org/2000/svg">
<rect width="311" height="118" rx="25" fill="white"/>
<path d="M81.112 63.632V83H69.16V48.512H79.672L80.392 50.6H80.68C81.784 49.352 82.888 48.56 83.992 48.224C85.144 47.84 86.992 47.648 89.536 47.648L89.032 59.168H85.72C83.848 59.168 82.6 59.456 81.976 60.032C81.4 60.608 81.112 61.808 81.112 63.632Z" fill="#FF0000"/>
<path d="M102.17 86.168H109.586C110.45 86.168 110.882 85.784 110.882 85.016V84.728C110.882 84.008 110.45 83.648 109.586 83.648H102.17C101.402 83.648 101.018 84.032 101.018 84.8V85.088C101.018 85.808 101.402 86.168 102.17 86.168ZM105.05 47.648H122.042V55.712H116.858V56.072C118.394 57.416 119.162 59.168 119.162 61.328C119.162 69.008 114.818 72.848 106.13 72.848H102.674C101.81 72.848 101.378 73.256 101.378 74.072C101.378 74.84 101.786 75.224 102.602 75.224H112.394C117.914 75.224 120.674 77.624 120.674 82.424C120.674 86.36 119.354 89.192 116.714 90.92C114.074 92.696 110.426 93.584 105.77 93.584C101.114 93.584 97.5863 93.08 95.1863 92.072C92.8343 91.112 91.6583 89.288 91.6583 86.6C91.6583 85.112 92.5943 83.864 94.4663 82.856V82.568C92.1143 81.272 90.9383 79.4 90.9383 76.952C90.9383 74.072 92.7863 71.888 96.4823 70.4C94.7543 69.152 93.4583 67.712 92.5943 66.08C91.7783 64.4 91.3703 62.192 91.3703 59.456C91.3703 55.664 92.5943 52.76 95.0423 50.744C97.5383 48.68 100.874 47.648 105.05 47.648ZM108.218 61.472C108.218 59.936 108.026 58.832 107.642 58.16C107.306 57.44 106.658 57.08 105.698 57.08C104.738 57.08 104.066 57.44 103.682 58.16C103.346 58.832 103.178 59.888 103.178 61.328C103.178 64.256 104.042 65.72 105.77 65.72C107.402 65.72 108.218 64.304 108.218 61.472Z" fill="#42FF00"/>
<path d="M142.576 47.72C147.088 47.72 150.088 49.04 151.576 51.68C153.064 54.272 153.808 58.76 153.808 65.144C153.808 71.48 153.016 76.16 151.432 79.184C149.848 82.208 146.752 83.72 142.144 83.72C138.544 83.72 136.024 82.784 134.584 80.912H134.296L133.576 83H124.144V36.848H136.168V49.304H136.456C138.04 48.248 140.08 47.72 142.576 47.72ZM141.28 72.2C141.472 71.336 141.592 70.496 141.64 69.68C141.688 68.864 141.712 67.328 141.712 65.072C141.712 62.768 141.544 61.016 141.208 59.816C140.872 58.568 140.176 57.944 139.12 57.944C138.112 57.944 137.104 58.232 136.096 58.808V73.712C137.008 74.144 137.872 74.36 138.688 74.36C139.552 74.36 140.152 74.216 140.488 73.928C140.872 73.592 141.136 73.016 141.28 72.2Z" fill="#0085FF"/>
<path d="M197.728 82.72C192.016 82.72 189.16 79.552 189.16 73.216V47.512H201.4V70.264C201.4 71.464 201.928 72.064 202.984 72.064C204.328 72.064 205.456 71.728 206.368 71.056V47.512H218.464V81.856H207.016V79.336H206.728C204.088 81.592 201.088 82.72 197.728 82.72ZM234.937 82H223.057V47.872H234.937V82ZM223.993 45.136C222.985 44.272 222.481 42.88 222.481 40.96C222.481 39.04 222.985 37.624 223.993 36.712C225.001 35.8 226.657 35.344 228.961 35.344C231.265 35.344 232.921 35.8 233.929 36.712C234.937 37.624 235.441 39.04 235.441 40.96C235.441 42.832 234.937 44.224 233.929 45.136C232.921 46 231.265 46.432 228.961 46.432C226.657 46.432 225.001 46 223.993 45.136Z" fill="#0085FF"/>
<path d="M194.728 78.72C189.016 78.72 186.16 75.552 186.16 69.216V43.512H198.4V66.264C198.4 67.464 198.928 68.064 199.984 68.064C201.328 68.064 202.456 67.728 203.368 67.056V43.512H215.464V77.856H204.016V75.336H203.728C201.088 77.592 198.088 78.72 194.728 78.72ZM231.937 78H220.057V43.872H231.937V78ZM220.993 41.136C219.985 40.272 219.481 38.88 219.481 36.96C219.481 35.04 219.985 33.624 220.993 32.712C222.001 31.8 223.657 31.344 225.961 31.344C228.265 31.344 229.921 31.8 230.929 32.712C231.937 33.624 232.441 35.04 232.441 36.96C232.441 38.832 231.937 40.224 230.929 41.136C229.921 42 228.265 42.432 225.961 42.432C223.657 42.432 222.001 42 220.993 41.136Z" fill="#FF0000"/>
<path d="M197.728 80.72C192.016 80.72 189.16 77.552 189.16 71.216V45.512H201.4V68.264C201.4 69.464 201.928 70.064 202.984 70.064C204.328 70.064 205.456 69.728 206.368 69.056V45.512H218.464V79.856H207.016V77.336H206.728C204.088 79.592 201.088 80.72 197.728 80.72ZM234.937 80H223.057V45.872H234.937V80ZM223.993 43.136C222.985 42.272 222.481 40.88 222.481 38.96C222.481 37.04 222.985 35.624 223.993 34.712C225.001 33.8 226.657 33.344 228.961 33.344C231.265 33.344 232.921 33.8 233.929 34.712C234.937 35.624 235.441 37.04 235.441 38.96C235.441 40.832 234.937 42.224 233.929 43.136C232.921 44 231.265 44.432 228.961 44.432C226.657 44.432 225.001 44 223.993 43.136Z" fill="#42FF00"/>
<path d="M81.112 60.632V80H69.16V45.512H79.672L80.392 47.6H80.68C81.784 46.352 82.888 45.56 83.992 45.224C85.144 44.84 86.992 44.648 89.536 44.648L89.032 56.168H85.72C83.848 56.168 82.6 56.456 81.976 57.032C81.4 57.608 81.112 58.808 81.112 60.632ZM102.17 83.168H109.586C110.45 83.168 110.882 82.784 110.882 82.016V81.728C110.882 81.008 110.45 80.648 109.586 80.648H102.17C101.402 80.648 101.018 81.032 101.018 81.8V82.088C101.018 82.808 101.402 83.168 102.17 83.168ZM105.05 44.648H122.042V52.712H116.858V53.072C118.394 54.416 119.162 56.168 119.162 58.328C119.162 66.008 114.818 69.848 106.13 69.848H102.674C101.81 69.848 101.378 70.256 101.378 71.072C101.378 71.84 101.786 72.224 102.602 72.224H112.394C117.914 72.224 120.674 74.624 120.674 79.424C120.674 83.36 119.354 86.192 116.714 87.92C114.074 89.696 110.426 90.584 105.77 90.584C101.114 90.584 97.5863 90.08 95.1863 89.072C92.8343 88.112 91.6583 86.288 91.6583 83.6C91.6583 82.112 92.5943 80.864 94.4663 79.856V79.568C92.1143 78.272 90.9383 76.4 90.9383 73.952C90.9383 71.072 92.7863 68.888 96.4823 67.4C94.7543 66.152 93.4583 64.712 92.5943 63.08C91.7783 61.4 91.3703 59.192 91.3703 56.456C91.3703 52.664 92.5943 49.76 95.0423 47.744C97.5383 45.68 100.874 44.648 105.05 44.648ZM108.218 58.472C108.218 56.936 108.026 55.832 107.642 55.16C107.306 54.44 106.658 54.08 105.698 54.08C104.738 54.08 104.066 54.44 103.682 55.16C103.346 55.832 103.178 56.888 103.178 58.328C103.178 61.256 104.042 62.72 105.77 62.72C107.402 62.72 108.218 61.304 108.218 58.472ZM142.576 44.72C147.088 44.72 150.088 46.04 151.576 48.68C153.064 51.272 153.808 55.76 153.808 62.144C153.808 68.48 153.016 73.16 151.432 76.184C149.848 79.208 146.752 80.72 142.144 80.72C138.544 80.72 136.024 79.784 134.584 77.912H134.296L133.576 80H124.144V33.848H136.168V46.304H136.456C138.04 45.248 140.08 44.72 142.576 44.72ZM141.28 69.2C141.472 68.336 141.592 67.496 141.64 66.68C141.688 65.864 141.712 64.328 141.712 62.072C141.712 59.768 141.544 58.016 141.208 56.816C140.872 55.568 140.176 54.944 139.12 54.944C138.112 54.944 137.104 55.232 136.096 55.808V70.712C137.008 71.144 137.872 71.36 138.688 71.36C139.552 71.36 140.152 71.216 140.488 70.928C140.872 70.592 141.136 70.016 141.28 69.2ZM181.083 66.104H158.979V56.456H181.083V66.104ZM195.291 80.72C189.579 80.72 186.723 77.552 186.723 71.216V45.512H198.963V68.264C198.963 69.464 199.491 70.064 200.547 70.064C201.891 70.064 203.019 69.728 203.931 69.056V45.512H216.027V79.856H204.579V77.336H204.291C201.651 79.592 198.651 80.72 195.291 80.72ZM232.5 80H220.62V45.872H232.5V80ZM221.556 43.136C220.548 42.272 220.044 40.88 220.044 38.96C220.044 37.04 220.548 35.624 221.556 34.712C222.564 33.8 224.22 33.344 226.524 33.344C228.828 33.344 230.484 33.8 231.492 34.712C232.5 35.624 233.004 37.04 233.004 38.96C233.004 40.832 232.5 42.224 231.492 43.136C230.484 44 228.828 44.432 226.524 44.432C224.22 44.432 222.564 44 221.556 43.136Z" fill="black"/>
</svg>
